# xmcd CD database file
#
# Track frame offsets:
#	150
#	20439
#	36977
#	57025
#	81424
#	98331
#	121875
#	140904
#	157678
#	175928
#
# Disc length: 2612 seconds
#
# Revision: 0
# Processed by: cddbd v1.5.1PL0 Copyright (c) Steve Scherf et al.
# Submitted via: CDex 1.51
#
DISCID=770a320a
DTITLE=Cavalo Vapor - Greatest Little Hits
DYEAR=1900
DGENRE=New Age
TTITLE0=Sem Escalas
TTITLE1=O Rato e o Elefante Branco
TTITLE2=Epicentro
TTITLE3=Antes Só
TTITLE4=Conversa
TTITLE5=Ainda Pode Ser
TTITLE6=Fera Sem Faro
TTITLE7=Nômade
TTITLE8=Não Tente Fazer Isso Em Casa
TTITLE9=Entre o Sim eo Não
EXTD=
EXTT0=
EXTT1=
EXTT2=
EXTT3=
EXTT4=
EXTT5=
EXTT6=
EXTT7=
EXTT8=
EXTT9=
PLAYORDER=
